<svg width="32" height="32" viewBox="0 0 32 32" fill="none" xmlns="http://www.w3.org/2000/svg">
  <rect width="32" height="32" rx="6" fill="url(#gradient)"/>
  <path d="M8 14H15V10H8V14ZM16 10V14H20L16 10ZM7 9C7 8.44772 7.44772 8 8 8H15C15.5523 8 16 8.44772 16 9V10H20C20.3788 10 20.725 10.214 20.8944 10.5528L23.8944 16.5528C23.9639 16.6889 24 16.8426 24 17V22C24 22.5523 23.5523 23 23 23H22C22 24.1046 21.1046 25 20 25C18.8954 25 18 24.1046 18 23H13C13 24.1046 12.1046 25 11 25C9.89543 25 9 24.1046 9 23H8C7.44772 23 7 22.5523 7 22V9ZM20 22C20 21.4477 19.5523 21 19 21C18.4477 21 18 21.4477 18 22C18 22.5523 18.4477 23 19 23C19.5523 23 20 22.5523 20 22ZM11 21C10.4477 21 10 21.4477 10 22C10 22.5523 10.4477 23 11 23C11.5523 23 12 22.5523 12 22C12 21.4477 11.5523 21 11 21ZM16 16V21H22V17.618L19.382 12H16V16Z" fill="white"/>
  <defs>
    <linearGradient id="gradient" x1="0" y1="0" x2="32" y2="32" gradientUnits="userSpaceOnUse">
      <stop stop-color="#f97316"/>
      <stop offset="1" stop-color="#f59e0b"/>
    </linearGradient>
  </defs>
</svg>

